<?xml version="1.0" standalone="no"?>
<!DOCTYPE svg PUBLIC "-//W3C//DTD SVG 20010904//EN"
 "http://www.w3.org/TR/2001/REC-SVG-20010904/DTD/svg10.dtd">
<svg version="1.0" xmlns="http://www.w3.org/2000/svg"
 width="882.000000pt" height="1008.000000pt" viewBox="0 0 882.000000 1008.000000"
 preserveAspectRatio="xMidYMid meet">
<metadata>
Created by potrace 1.16, written by Peter Selinger 2001-2019
</metadata>
<g transform="translate(0.000000,1008.000000) scale(0.100000,-0.100000)"
fill="#000000" stroke="none">
<path d="M4010 10073 c-25 -2 -117 -12 -205 -23 -1772 -222 -3234 -1515 -3674
-3250 -84 -333 -120 -607 -128 -975 -8 -380 19 -675 93 -1021 157 -737 513
-1432 1022 -1999 40 -43 72 -86 73 -95 0 -8 60 -620 132 -1360 l132 -1345
1887 -3 1888 -2 5 22 c3 13 35 178 71 368 36 189 66 345 67 346 1 0 70 -4 152
-9 230 -16 1315 -15 1455 1 231 26 342 65 435 153 100 95 129 214 119 484 -4
98 -2 136 8 155 9 16 55 47 128 86 239 126 313 244 288 458 l-11 91 84 85 c46
47 94 106 106 131 23 47 42 178 43 290 l0 56 168 6 c230 9 318 33 392 107 53
53 74 103 78 192 6 114 -16 174 -210 578 -94 195 -182 379 -195 408 l-25 53
55 147 c262 697 336 1494 211 2247 -129 778 -477 1517 -997 2120 -131 153
-408 421 -557 540 -684 549 -1460 865 -2330 950 -132 13 -628 18 -760 8z
m1312 -1099 c90 -47 91 -186 2 -245 -27 -17 -52 -19 -346 -19 l-318 0 0 -86
c0 -98 -19 -142 -70 -169 -37 -19 -103 -19 -140 0 -53 28 -72 67 -78 166 l-5
89 -286 0 c-266 0 -288 1 -318 20 -79 48 -90 160 -23 225 l31 30 367 5 c202 3
544 4 761 2 327 -2 399 -5 423 -18z m878 -646 c194 -103 461 -299 633 -467 87
-85 99 -101 104 -138 3 -23 3 -53 -1 -67 -9 -38 -53 -83 -92 -96 -62 -21 -98
-6 -196 83 -203 184 -385 319 -577 428 -105 59 -131 90 -131 157 0 72 40 128
102 142 46 10 72 4 158 -42z m-1232 -57 c703 -108 1340 -469 1783 -1011 103
-126 109 -136 109 -192 0 -81 -58 -138 -140 -138 -62 0 -90 20 -171 122 -91
115 -276 301 -389 392 -379 303 -823 490 -1309 552 -186 23 -554 16 -724 -15
-532 -95 -989 -324 -1363 -684 -422 -405 -679 -907 -771 -1504 -21 -136 -24
-536 -5 -668 71 -497 250 -920 549 -1295 86 -108 283 -306 393 -394 354 -283
783 -470 1240 -542 164 -26 577 -26 740 -1 328 52 636 158 900 309 353 203
597 428 868 798 76 104 157 118 234 40 35 -35 38 -42 38 -93 0 -50 -5 -63 -48
-126 -96 -141 -180 -240 -342 -401 -228 -228 -428 -377 -691 -514 -667 -349
-1440 -420 -2166 -200 -660 199 -1251 661 -1609 1256 -619 1027 -534 2326 214
3265 429 538 1041 904 1722 1028 207 38 285 44 555 40 189 -2 283 -8 383 -24z
m-370 -2415 c15 -8 38 -26 52 -41 23 -24 25 -36 28 -131 l4 -104 831 0 c796 0
833 -1 863 -19 43 -26 68 -82 61 -140 -4 -37 -13 -52 -46 -83 l-40 -38 -837 0
-836 0 7 -994 8 -994 -22 -45 c-41 -84 -139 -109 -214 -55 -59 42 -57 -2 -57
1088 l0 1000 -440 0 c-478 0 -475 0 -519 56 -46 58 -35 141 25 194 l35 30 449
0 450 0 -2 93 c-2 77 1 99 17 126 37 62 122 88 183 57z"/>
</g>
</svg>
